# xmcd
#
# Track frame offsets: 
#        150
#        11997
#        28671
#        44274
#        59495
#        72358
#        91187
#        118048
#        138002
#        161758
#        181550
#
# Disc length: 2724 seconds
#
# Revision: 0
# Processed by: cddbd v1.5.2PL0 Copyright (c) Steve Scherf et al.
# Submitted via: ExactAudioCopy v0.95b3
#
DISCID=8e0aa20b
DTITLE=Гости из будущего - Это сильнее меня, часть 2
DYEAR=2003
DGENRE=поп
TTITLE0=Метко 1
TTITLE1=Почему ты
TTITLE2=Не говори о любви
TTITLE3=Девушка,которая поёт
TTITLE4=Уходи - уходи
TTITLE5=новогодняя песня
TTITLE6=Никто, кроме тебя
TTITLE7=Л.М.П.Ф.
TTITLE8=Кто сказал
TTITLE9=Ты где - то
TTITLE10=Метко 2
EXTD=
EXTT0=
EXTT1=
EXTT2=
EXTT3=
EXTT4=
EXTT5=
EXTT6=
EXTT7=
EXTT8=
EXTT9=
EXTT10=
PLAYORDER=
